<?xml version="1.0" encoding="utf-8"?>
<!-- Generator: Adobe Illustrator 18.0.0, SVG Export Plug-In . SVG Version: 6.00 Build 0)  -->
<!DOCTYPE svg PUBLIC "-//W3C//DTD SVG 1.1//EN" "http://www.w3.org/Graphics/SVG/1.1/DTD/svg11.dtd">
<svg version="1.1" id="Слой_1" xmlns="http://www.w3.org/2000/svg" xmlns:xlink="http://www.w3.org/1999/xlink" x="0px" y="0px"
	 viewBox="-130 -10 360 120" enable-background="new -130 -10 360 120" xml:space="preserve">
<g>
	<g>
		<path fill="#B4B4B4" d="M200.1,33.5c-7.3,0-13.6,3.6-17.4,9.2v-7.5h-15.4v54h15.4V57.9c0.3-6.1,5.4-10.9,11.6-10.9
			c6.4,0,11.5,5.1,11.6,11.5v23c0,8.5,6.9,15.4,15.4,15.4V54.7C221.2,43,211.8,33.5,200.1,33.5z"/>
		<path fill="#B4B4B4" d="M103.8,62.3c0-15.8-10.3-28.7-28.7-28.7S46.3,46.4,46.3,62.3C46.3,78.1,56.6,91,75,91
			c12.6,0,21.4-6,25.7-14.9L98,74.6c-1.8-0.9-3.9-1.5-6-1.5c-3.3,0-6.2,1.2-8.5,3.2c-2.2,2.2-5,3.5-8.5,3.5c-7.4,0-11.9-5.8-13-13.7
			c13.8,0,27.7,0,41.5,0C103.7,64.8,103.8,63.6,103.8,62.3z M62.4,56.7c1.5-7,5.9-12,12.7-12c6.8,0,11.2,5,12.7,12H62.4z"/>
		<path fill="#B4B4B4" d="M164.6,62.3c0-15.8-10.3-28.7-28.7-28.7s-28.7,12.8-28.7,28.7c0,15.8,10.3,28.7,28.7,28.7
			c12.6,0,21.4-6,25.7-14.9l-2.7-1.5c-1.8-0.9-3.8-1.5-6-1.5c-3.3,0-6.2,1.2-8.6,3.2c-2.2,2.2-5,3.5-8.5,3.5
			c-7.4,0-11.9-5.8-13-13.7c13.8,0,27.7,0,41.5,0C164.5,64.8,164.6,63.6,164.6,62.3z M123.2,56.7c1.5-7,5.9-12,12.7-12
			s11.2,5,12.7,12H123.2z"/>
		<path fill="#B4B4B4" d="M51,34.8l-1,7.2c-0.1,0.8-0.5,2.4-2.8,4c-1.4,1-3.1,1.4-4.7,1.2c-4.3-0.2-8.2,1-11,4.4
			c-3.1,4-3,6.2-3,11.4v26.3H13v-54h15.4v8.3c3.1-6.6,8.7-10,15.9-10C46.7,33.5,48.8,34,51,34.8z"/>
		<path fill="#B4B4B4" d="M-38.8,10.4c-7.9,0-15.2,2.8-20.8,7.5c-2.4-1.8-5.3-3-8.4-3.4c-1-0.1-1.9-0.2-2.9-0.2
			c-2.7,0-5.2,0.6-7.5,1.6C-69.7,3.2-55.2-5-38.8-5c15,0,28.4,6.9,37.2,17.7L-6,16.4c-2.6,1.6-5.7,2.4-8.9,1.9
			c-1.7-0.2-3.3-0.9-4.8-1.6C-25,12.7-31.6,10.4-38.8,10.4z"/>
		<path fill="#B4B4B4" d="M9.2,35.3L9.2,43c0,21.6-14.3,39.9-33.9,45.9c0.3-5.4-0.2-10.7-1.5-15.8c9.4-4,16.6-12.2,19.1-22.4h-24.6
			c-8.5,0-15.4-6.9-15.4-15.4H9.2z"/>
	</g>
	<path id="one_color" fill="#B4B4B4" d="M-58.3,41.7c0-0.1,0.1-0.1,0.1-0.2l0,0v-0.1c1.8-3.9,1.9-4.9,2.2-6.3
		c1.1-8.1-4.4-15.6-12.5-16.7c-6-0.9-12.6,1.4-16,9.6c-13.3-1.3-21.1-1.5-36.7,4.9c14.2-3.7,26.5-3.7,35.5-1.1
		c-0.5,2.2-0.9,4.7-1,7.4c-1.2,15.8,5.3,30.5,16.6,40.3c-4,4-4.5,9.9-4.5,9.9s2.4-5.7,8.5-6.8c4.3,3,9.1,5.3,14.3,6.8
		c4.9,6.6,11.5,12,19.2,15.5c1.7-3.9,2.9-8,3.5-12.3c0.1-0.8,0.2-1.5,0.3-2.3C-26.8,69-39.2,49.4-58.3,41.7z M-78.2,33.7
		c-1.6,0-2.8-1.2-2.8-2.8c0-1.6,1.2-2.8,2.8-2.8c1.6,0,2.8,1.2,2.8,2.8C-75.3,32.5-76.6,33.7-78.2,33.7z"/>
</g>
</svg>
