<?xml version="1.0" encoding="utf-8"?>
<!-- Generator: Adobe Illustrator 18.0.0, SVG Export Plug-In . SVG Version: 6.00 Build 0)  -->
<!DOCTYPE svg PUBLIC "-//W3C//DTD SVG 1.1//EN" "http://www.w3.org/Graphics/SVG/1.1/DTD/svg11.dtd">
<svg version="1.1" id="Слой_1" xmlns="http://www.w3.org/2000/svg" xmlns:xlink="http://www.w3.org/1999/xlink" x="0px" y="0px"
	 viewBox="0 0 500 360" enable-background="new 0 0 500 360" xml:space="preserve">
<g>
	<path fill="#282828" d="M173.5,292c-17.3,3.2-24.1,19.2-24.1,19.2s1.4-16.7,12.8-27.9C165.8,286.4,169.6,289.3,173.5,292z"/>
	<g>
		<path fill="#FFCE00" d="M213.8,311.1c-14.7-4.2-28.2-10.7-40.3-19c-3.9-2.7-7.7-5.7-11.3-8.8c-31.8-27.5-50.3-69.2-46.8-113.6
			c2.2-49,28.8-62.1,51.5-58.8c22.7,3.3,38.5,24.4,35.2,47.1c-0.6,3.9-1,6.9-6.1,17.8c0,0,0,0.1-0.1,0.1c0,0,0,0,0,0
			c0,0.1-0.1,0.2-0.2,0.5c-3.9,9.9-6.7,20.3-8.3,31.3C182,245.8,192.5,282.5,213.8,311.1z"/>
		<path fill="#EF0000" d="M278.8,313.4c-0.2,2.2-0.5,4.4-0.8,6.6c-1.8,12.3-5.2,23.9-9.9,34.8c-21.8-9.9-40.4-25.1-54.3-43.7
			c-21.3-28.6-31.7-65.3-26.3-103.4c1.6-11,4.4-21.4,8.3-31.3C249.6,198.3,284.4,253.6,278.8,313.4z"/>
		<path fill="#282828" d="M147.8,146c0,4.4-3.6,8-8,8c-2.8,0-5.3-1.4-6.7-3.6c-6.7-10-14.8-1.7-14.8-1.7c-25.3-7.5-60-7.3-100,3.1
			c44-17.9,65.9-17.3,103.5-13.7c0,0,4,8.2,13.5,1.4c0.1,0,1.9-1.4,4.5-1.4C144.2,138,147.8,141.6,147.8,146z"/>
		<path fill="#0DA018" d="M250.8,88.3c-22.3,0-42.7,7.9-58.6,21.1c-6.8-5-14.8-8.4-23.7-9.7c-2.7-0.4-5.5-0.6-8.1-0.6
			c-7.6,0-14.7,1.5-21.2,4.4c24.4-35.5,65.2-58.8,111.6-58.8c42.4,0,80.2,19.5,105,50L343.1,105c-7.2,4.6-16,6.8-25.1,5.5
			c-4.9-0.7-9.4-2.3-13.4-4.7C289.5,94.8,270.9,88.3,250.8,88.3z"/>
		<path fill="#0DA018" d="M385.9,158.4l0.1,21.7c0,60.9-40.3,112.5-95.8,129.4c1-15.2-0.5-30.2-4.2-44.7
			c26.6-11.1,46.9-34.4,53.9-63l-69.3,0c-23.9,0-43.3-19.4-43.5-43.5H385.9z"/>
	</g>
</g>
</svg>
